<?xml version="1.0" encoding="UTF-8" standalone="no"?>
<!-- Created with Inkscape (http://www.inkscape.org/) -->

<svg
   xmlns:dc="http://purl.org/dc/elements/1.1/"
   xmlns:cc="http://creativecommons.org/ns#"
   xmlns:rdf="http://www.w3.org/1999/02/22-rdf-syntax-ns#"
   xmlns:svg="http://www.w3.org/2000/svg"
   xmlns="http://www.w3.org/2000/svg"
   xmlns:sodipodi="http://sodipodi.sourceforge.net/DTD/sodipodi-0.dtd"
   xmlns:inkscape="http://www.inkscape.org/namespaces/inkscape"
   width="300"
   height="40"
   id="svg4837"
   version="1.1"
   inkscape:version="0.48.2 r9819"
   sodipodi:docname="autopilot.svg"
   inkscape:export-filename="./autopilot.png"
   inkscape:export-xdpi="90"
   inkscape:export-ydpi="90">
  <defs
     id="defs4839" />
  <sodipodi:namedview
     id="base"
     pagecolor="#ffffff"
     bordercolor="#666666"
     borderopacity="1.0"
     inkscape:pageopacity="0.0"
     inkscape:pageshadow="2"
     inkscape:zoom="1"
     inkscape:cx="112.60899"
     inkscape:cy="32.779761"
     inkscape:document-units="px"
     inkscape:current-layer="layer1"
     showgrid="false">
    <inkscape:grid
       type="xygrid"
       id="grid4860"
       empspacing="5"
       visible="true"
       enabled="true"
       snapvisiblegridlinesonly="true" />
  </sodipodi:namedview>
  <metadata
     id="metadata4842">
    <rdf:RDF>
      <cc:Work
         rdf:about="">
        <dc:format>image/svg+xml</dc:format>
        <dc:type
           rdf:resource="http://purl.org/dc/dcmitype/StillImage" />
        <dc:title />
      </cc:Work>
    </rdf:RDF>
  </metadata>
  <g
     inkscape:label="Layer 1"
     inkscape:groupmode="layer"
     id="layer1"
     transform="translate(0,-1012.3622)">
    <path
       style="color:#000000;fill:#202020;fill-opacity:1;fill-rule:nonzero;stroke:none;stroke-width:1;marker:none;visibility:visible;display:inline;overflow:visible;enable-background:accumulate"
       d="M 110 4.5 C 106.96244 4.5 104.5 6.9624359 104.5 10 C 104.5 13.037564 106.96244 15.5 110 15.5 C 113.03756 15.5 115.5 13.037564 115.5 10 C 115.5 6.9624359 113.03756 4.5 110 4.5 z M 110 7 C 111.65684 7 113 8.343164 113 10 C 113 11.656836 111.65684 13 110 13 C 108.34316 13 107 11.656836 107 10 C 107 8.343164 108.34316 7 110 7 z "
       transform="translate(0,1012.3622)"
       id="path3004" />
    <g
       id="g4866"
       transform="translate(0,260)">
      <path
         sodipodi:nodetypes="cccc"
         inkscape:connector-curvature="0"
         id="path3879"
         d="m 29,792.36218 -14,-14.5 -14,14.5 z"
         style="color:#000000;fill:#cccccc;fill-opacity:1;fill-rule:nonzero;stroke:none;stroke-width:1;marker:none;visibility:visible;display:inline;overflow:visible;enable-background:accumulate" />
      <path
         style="color:#000000;fill:#ffffff;fill-opacity:1;fill-rule:nonzero;stroke:none;stroke-width:1;marker:none;visibility:visible;display:inline;overflow:visible;enable-background:accumulate"
         d="m 27.7037,792.36218 -12.7037,-13 -12.7037,13 z"
         id="path4649"
         inkscape:connector-curvature="0"
         sodipodi:nodetypes="cccc" />
    </g>
    <path
       style="color:#000000;fill:#202020;fill-opacity:1;fill-rule:nonzero;stroke:none;stroke-width:1;marker:none;visibility:visible;display:inline;overflow:visible;enable-background:accumulate"
       d="m 30,1016.3622 c -0.846103,1.6922 -1.639325,2.4325 -1.639325,2.4325 l -1.348477,1.3485 c -1.652119,1.6521 -1.652119,4.3235 0,5.9756 1.652119,1.6521 4.323484,1.6521 5.975604,0 1.65212,-1.6521 1.65212,-4.3235 0,-5.9756 l -1.348477,-1.3485 c 0,0 -0.793222,-0.7403 -1.639325,-2.4325 z m -1.269155,4.2305 c 0.700935,0 1.269155,0.5682 1.269155,1.2691 0,0.701 -0.56822,1.2692 -1.269155,1.2692 -0.700935,0 -1.269155,-0.5682 -1.269155,-1.2692 0,-0.7009 0.56822,-1.2691 1.269155,-1.2691 z"
       id="path4872"
       inkscape:connector-curvature="0" />
    <path
       style="fill:#000000;fill-opacity:0.0627451;stroke:none"
       d="m 40,1032.3622 0,5 5,0 0,-5 -5,0 z m 5,5 0,5 5,0 0,-5 -5,0 z m 5,0 5,0 0,-5 -5,0 0,5 z m 5,0 0,5 5,0 0,-5 -5,0 z m 5,0 5,0 0,-5 -5,0 0,5 z m 5,0 0,5 5,0 0,-5 -5,0 z m 5,0 5,0 0,-5 -5,0 0,5 z m 5,0 0,5 5,0 0,-5 -5,0 z m 5,0 5,0 0,-5 -5,0 0,5 z m 5,0 0,5 5,0 0,-5 -5,0 z m 5,0 5,0 0,-5 -5,0 0,5 z m 5,0 0,5 5,0 0,-5 -5,0 z m 5,0 5,0 0,-5 -5,0 0,5 z m 5,0 0,5 5,0 0,-5 -5,0 z m 5,0 5,0 0,-5 -5,0 0,5 z m 5,0 0,5 5,0 0,-5 -5,0 z m 5,0 5,0 0,-5 -5,0 0,5 z m 5,0 0,5 5,0 0,-5 -5,0 z m 5,0 5,0 0,-5 -5,0 0,5 z m 5,0 0,5 5,0 0,-5 -5,0 z m 5,0 5,0 0,-5 -5,0 0,5 z m 5,0 0,5 5,0 0,-5 -5,0 z m 5,0 5,0 0,-5 -5,0 0,5 z m 5,0 0,5 5,0 0,-5 -5,0 z m 0,5 -5,0 0,5 5,0 0,-5 z m 0,5 0,5 5,0 0,-5 -5,0 z m -5,0 -5,0 0,5 5,0 0,-5 z m -5,0 0,-5 -5,0 0,5 5,0 z m -5,0 -5,0 0,5 5,0 0,-5 z m -5,0 0,-5 -5,0 0,5 5,0 z m -5,0 -5,0 0,5 5,0 0,-5 z m -5,0 0,-5 -5,0 0,5 5,0 z m -5,0 -5,0 0,5 5,0 0,-5 z m -5,0 0,-5 -5,0 0,5 5,0 z m -5,0 -5,0 0,5 5,0 0,-5 z m -5,0 0,-5 -5,0 0,5 5,0 z m -5,0 -5,0 0,5 5,0 0,-5 z m -5,0 0,-5 -5,0 0,5 5,0 z m -5,0 -5,0 0,5 5,0 0,-5 z m -5,0 0,-5 -5,0 0,5 5,0 z m -5,0 -5,0 0,5 5,0 0,-5 z m -5,0 0,-5 -5,0 0,5 5,0 z m -5,0 -5,0 0,5 5,0 0,-5 z m -5,0 0,-5 -5,0 0,5 5,0 z m -5,0 -5,0 0,5 5,0 0,-5 z m -5,0 0,-5 -5,0 0,5 5,0 z m -5,0 -5,0 0,5 5,0 0,-5 z m -5,0 0,-5 -5,0 0,5 5,0 z"
       id="rect3962"
       inkscape:connector-curvature="0" />
    <path
       style="color:#000000;fill:#202020;fill-opacity:1;fill-rule:nonzero;stroke:none;stroke-width:1;marker:none;visibility:visible;display:inline;overflow:visible;enable-background:accumulate"
       d="m 45,1025.8622 1.5,1.5 8.5,-8.5 -1.5,-1.5"
       id="path6189"
       inkscape:connector-curvature="0"
       sodipodi:nodetypes="cccc" />
    <path
       style="color:#000000;fill:#202020;fill-opacity:1;fill-rule:nonzero;stroke:none;stroke-width:1;marker:none;visibility:visible;display:inline;overflow:visible;enable-background:accumulate"
       d="m 65,1017.3622 0,1.5 0,1.5 1,-1.5 2.875,0 0,6.75 -0.875,1.75 4,0 -0.875,-1.75 0,-6.75 2.875,0 1,1.5 0,-1.5 0,-1.5 z"
       id="rect6191"
       inkscape:connector-curvature="0"
       sodipodi:nodetypes="ccccccccccccccc" />
    <rect
       style="color:#000000;fill:#202020;fill-opacity:1;fill-rule:nonzero;stroke:none;stroke-width:1;marker:none;visibility:visible;display:inline;overflow:visible;enable-background:accumulate"
       id="rect6854"
       width="12"
       height="12"
       x="4"
       y="1016.3622"
       rx="2"
       ry="2" />
    <path
       style="color:#000000;fill:#ffffff;fill-opacity:1;fill-rule:nonzero;stroke:none;stroke-width:1;marker:none;visibility:visible;display:inline;overflow:visible;enable-background:accumulate"
       d="m 8.375,5.5 c -0.1385,0 -0.25,0.1115 -0.25,0.25 l 0,2.375 -2.375,0 c -0.1385,0 -0.25,0.1115 -0.25,0.25 l 0,0.25 c 0,0.1385 0.1115,0.25 0.25,0.25 l 2.375,0 0,2.25 -2.375,0 c -0.1385,0 -0.25,0.1115 -0.25,0.25 l 0,0.25 c 0,0.1385 0.1115,0.25 0.25,0.25 l 2.375,0 0,2.375 c 0,0.1385 0.1115,0.25 0.25,0.25 l 0.25,0 c 0.1385,0 0.25,-0.1115 0.25,-0.25 l 0,-2.375 2.25,0 0,2.375 c 0,0.1385 0.1115,0.25 0.25,0.25 l 0.25,0 c 0.1385,0 0.25,-0.1115 0.25,-0.25 l 0,-2.375 2.375,0 c 0.1385,0 0.25,-0.1115 0.25,-0.25 l 0,-0.25 c 0,-0.1385 -0.1115,-0.25 -0.25,-0.25 l -2.375,0 0,-2.25 2.375,0 c 0.1385,0 0.25,-0.1115 0.25,-0.25 l 0,-0.25 c 0,-0.1385 -0.1115,-0.25 -0.25,-0.25 l -2.375,0 0,-2.375 c 0,-0.1385 -0.1115,-0.25 -0.25,-0.25 l -0.25,0 c -0.1385,0 -0.25,0.1115 -0.25,0.25 l 0,2.375 -2.25,0 0,-2.375 C 8.875,5.6115 8.7635,5.5 8.625,5.5 z m 0.5,3.375 2.25,0 0,2.25 -2.25,0 z"
       transform="translate(0,1012.3622)"
       id="rect6856"
       inkscape:connector-curvature="0"
       sodipodi:nodetypes="sscssssccsssscssssccsssscssssccsssscssssccsssccccc" />
    <path
       sodipodi:type="arc"
       style="color:#000000;fill:#202020;fill-opacity:1;fill-rule:nonzero;stroke:none;stroke-width:1;marker:none;visibility:visible;display:inline;overflow:visible;enable-background:accumulate"
       id="path3000"
       sodipodi:cx="90"
       sodipodi:cy="10"
       sodipodi:rx="3"
       sodipodi:ry="3"
       d="m 93,10 a 3,3 0 1 1 -6,0 3,3 0 1 1 6,0 z"
       transform="matrix(1.6666667,0,0,1.6666667,-60,1005.6955)" />
  </g>
</svg>
