<?xml version="1.0" encoding="UTF-8" standalone="no"?>
<!-- Created with Inkscape (http://www.inkscape.org/) -->

<svg
   xmlns:dc="http://purl.org/dc/elements/1.1/"
   xmlns:cc="http://creativecommons.org/ns#"
   xmlns:rdf="http://www.w3.org/1999/02/22-rdf-syntax-ns#"
   xmlns:svg="http://www.w3.org/2000/svg"
   xmlns="http://www.w3.org/2000/svg"
   xmlns:sodipodi="http://sodipodi.sourceforge.net/DTD/sodipodi-0.dtd"
   xmlns:inkscape="http://www.inkscape.org/namespaces/inkscape"
   width="300"
   height="60"
   id="svg4837"
   version="1.1"
   inkscape:version="0.48.2 r9819"
   sodipodi:docname="autopilot.svg"
   inkscape:export-filename="./autopilot.png"
   inkscape:export-xdpi="90"
   inkscape:export-ydpi="90">
  <defs
     id="defs4839" />
  <sodipodi:namedview
     id="base"
     pagecolor="#ffffff"
     bordercolor="#666666"
     borderopacity="1.0"
     inkscape:pageopacity="0.0"
     inkscape:pageshadow="2"
     inkscape:zoom="2.4414063"
     inkscape:cx="90.80013"
     inkscape:cy="7.4986262"
     inkscape:document-units="px"
     inkscape:current-layer="layer1"
     showgrid="true">
    <inkscape:grid
       type="xygrid"
       id="grid4860"
       empspacing="5"
       visible="true"
       enabled="true"
       snapvisiblegridlinesonly="true" />
  </sodipodi:namedview>
  <metadata
     id="metadata4842">
    <rdf:RDF>
      <cc:Work
         rdf:about="">
        <dc:format>image/svg+xml</dc:format>
        <dc:type
           rdf:resource="http://purl.org/dc/dcmitype/StillImage" />
        <dc:title></dc:title>
      </cc:Work>
    </rdf:RDF>
  </metadata>
  <g
     inkscape:label="Layer 1"
     inkscape:groupmode="layer"
     id="layer1"
     transform="translate(0,-992.3622)">
    <path
       style="color:#000000;fill:#202020;fill-opacity:1;fill-rule:nonzero;stroke:none;stroke-width:1;marker:none;visibility:visible;display:inline;overflow:visible;enable-background:accumulate"
       d="m 110,996.8622 c -3.03756,0 -5.5,2.4624 -5.5,5.5 0,3.0376 2.46244,5.5 5.5,5.5 3.03756,0 5.5,-2.4624 5.5,-5.5 0,-3.0376 -2.46244,-5.5 -5.5,-5.5 z m 0,2.5 c 1.65684,0 3,1.3432 3,3 0,1.6568 -1.34316,3 -3,3 -1.65684,0 -3,-1.3432 -3,-3 0,-1.6568 1.34316,-3 3,-3 z"
       id="path3004"
       inkscape:connector-curvature="0" />
    <g
       id="g4866"
       transform="translate(0,260)">
      <path
         sodipodi:nodetypes="cccc"
         inkscape:connector-curvature="0"
         id="path3879"
         d="m 29,792.36218 -14,-14.5 -14,14.5 z"
         style="color:#000000;fill:#cccccc;fill-opacity:1;fill-rule:nonzero;stroke:none;stroke-width:1;marker:none;visibility:visible;display:inline;overflow:visible;enable-background:accumulate" />
      <path
         style="color:#000000;fill:#ffffff;fill-opacity:1;fill-rule:nonzero;stroke:none;stroke-width:1;marker:none;visibility:visible;display:inline;overflow:visible;enable-background:accumulate"
         d="m 27.7037,792.36218 -12.7037,-13 -12.7037,13 z"
         id="path4649"
         inkscape:connector-curvature="0"
         sodipodi:nodetypes="cccc" />
    </g>
    <path
       style="color:#000000;fill:#202020;fill-opacity:1;fill-rule:nonzero;stroke:none;stroke-width:1;marker:none;visibility:visible;display:inline;overflow:visible;enable-background:accumulate"
       d="m 30,996.3622 c -0.846103,1.6922 -1.639325,2.4325 -1.639325,2.4325 l -1.348477,1.3485 c -1.652119,1.6521 -1.652119,4.3235 0,5.9756 1.652119,1.6521 4.323484,1.6521 5.975604,0 1.65212,-1.6521 1.65212,-4.3235 0,-5.9756 l -1.348477,-1.3485 c 0,0 -0.793222,-0.7403 -1.639325,-2.4325 z m -1.269155,4.2305 c 0.700935,0 1.269155,0.5682 1.269155,1.2691 0,0.701 -0.56822,1.2692 -1.269155,1.2692 -0.700935,0 -1.269155,-0.5682 -1.269155,-1.2692 0,-0.7009 0.56822,-1.2691 1.269155,-1.2691 z"
       id="path4872"
       inkscape:connector-curvature="0" />
    <path
       style="fill:#000000;fill-opacity:0.0627451;stroke:none"
       d="m 40,1032.3622 0,5 5,0 0,-5 -5,0 z m 5,5 0,5 5,0 0,-5 -5,0 z m 5,0 5,0 0,-5 -5,0 0,5 z m 5,0 0,5 5,0 0,-5 -5,0 z m 5,0 5,0 0,-5 -5,0 0,5 z m 5,0 0,5 5,0 0,-5 -5,0 z m 5,0 5,0 0,-5 -5,0 0,5 z m 5,0 0,5 5,0 0,-5 -5,0 z m 5,0 5,0 0,-5 -5,0 0,5 z m 5,0 0,5 5,0 0,-5 -5,0 z m 5,0 5,0 0,-5 -5,0 0,5 z m 5,0 0,5 5,0 0,-5 -5,0 z m 5,0 5,0 0,-5 -5,0 0,5 z m 5,0 0,5 5,0 0,-5 -5,0 z m 5,0 5,0 0,-5 -5,0 0,5 z m 5,0 0,5 5,0 0,-5 -5,0 z m 5,0 5,0 0,-5 -5,0 0,5 z m 5,0 0,5 5,0 0,-5 -5,0 z m 5,0 5,0 0,-5 -5,0 0,5 z m 5,0 0,5 5,0 0,-5 -5,0 z m 5,0 5,0 0,-5 -5,0 0,5 z m 5,0 0,5 5,0 0,-5 -5,0 z m 5,0 5,0 0,-5 -5,0 0,5 z m 5,0 0,5 5,0 0,-5 -5,0 z m 0,5 -5,0 0,5 5,0 0,-5 z m 0,5 0,5 5,0 0,-5 -5,0 z m -5,0 -5,0 0,5 5,0 0,-5 z m -5,0 0,-5 -5,0 0,5 5,0 z m -5,0 -5,0 0,5 5,0 0,-5 z m -5,0 0,-5 -5,0 0,5 5,0 z m -5,0 -5,0 0,5 5,0 0,-5 z m -5,0 0,-5 -5,0 0,5 5,0 z m -5,0 -5,0 0,5 5,0 0,-5 z m -5,0 0,-5 -5,0 0,5 5,0 z m -5,0 -5,0 0,5 5,0 0,-5 z m -5,0 0,-5 -5,0 0,5 5,0 z m -5,0 -5,0 0,5 5,0 0,-5 z m -5,0 0,-5 -5,0 0,5 5,0 z m -5,0 -5,0 0,5 5,0 0,-5 z m -5,0 0,-5 -5,0 0,5 5,0 z m -5,0 -5,0 0,5 5,0 0,-5 z m -5,0 0,-5 -5,0 0,5 5,0 z m -5,0 -5,0 0,5 5,0 0,-5 z m -5,0 0,-5 -5,0 0,5 5,0 z m -5,0 -5,0 0,5 5,0 0,-5 z m -5,0 0,-5 -5,0 0,5 5,0 z m -5,0 -5,0 0,5 5,0 0,-5 z m -5,0 0,-5 -5,0 0,5 5,0 z"
       id="rect3962"
       inkscape:connector-curvature="0" />
    <path
       style="color:#000000;fill:#202020;fill-opacity:1;fill-rule:nonzero;stroke:none;stroke-width:1;marker:none;visibility:visible;display:inline;overflow:visible;enable-background:accumulate"
       d="m 45,1005.8622 1.5,1.5 8.5,-8.5 -1.5,-1.5"
       id="path6189"
       inkscape:connector-curvature="0"
       sodipodi:nodetypes="cccc" />
    <path
       style="color:#000000;fill:#202020;fill-opacity:1;fill-rule:nonzero;stroke:none;stroke-width:1;marker:none;visibility:visible;display:inline;overflow:visible;enable-background:accumulate"
       d="m 65,997.3622 0,1.5 0,1.5 1,-1.5 2.875,0 0,6.75 -0.875,1.75 4,0 -0.875,-1.75 0,-6.75 2.875,0 1,1.5 0,-1.5 0,-1.5 z"
       id="rect6191"
       inkscape:connector-curvature="0"
       sodipodi:nodetypes="ccccccccccccccc" />
    <path
       style="color:#000000;fill:#202020;fill-opacity:1;fill-rule:nonzero;stroke:none;stroke-width:1;marker:none;visibility:visible;display:inline;overflow:visible;enable-background:accumulate"
       d="M 6 4 C 4.892 4 4 4.892 4 6 L 4 14 C 4 15.108 4.892 16 6 16 L 14 16 C 15.108 16 16 15.108 16 14 L 16 6 C 16 4.892 15.108 4 14 4 L 6 4 z M 8.375 5.5 L 8.625 5.5 C 8.7635 5.5 8.875 5.6115 8.875 5.75 L 8.875 8.125 L 11.125 8.125 L 11.125 5.75 C 11.125 5.6115 11.2365 5.5 11.375 5.5 L 11.625 5.5 C 11.7635 5.5 11.875 5.6115 11.875 5.75 L 11.875 8.125 L 14.25 8.125 C 14.3885 8.125 14.5 8.2365 14.5 8.375 L 14.5 8.625 C 14.5 8.7635 14.3885 8.875 14.25 8.875 L 11.875 8.875 L 11.875 11.125 L 14.25 11.125 C 14.3885 11.125 14.5 11.2365 14.5 11.375 L 14.5 11.625 C 14.5 11.7635 14.3885 11.875 14.25 11.875 L 11.875 11.875 L 11.875 14.25 C 11.875 14.3885 11.7635 14.5 11.625 14.5 L 11.375 14.5 C 11.2365 14.5 11.125 14.3885 11.125 14.25 L 11.125 11.875 L 8.875 11.875 L 8.875 14.25 C 8.875 14.3885 8.7635 14.5 8.625 14.5 L 8.375 14.5 C 8.2365 14.5 8.125 14.3885 8.125 14.25 L 8.125 11.875 L 5.75 11.875 C 5.6115 11.875 5.5 11.7635 5.5 11.625 L 5.5 11.375 C 5.5 11.2365 5.6115 11.125 5.75 11.125 L 8.125 11.125 L 8.125 8.875 L 5.75 8.875 C 5.6115 8.875 5.5 8.7635 5.5 8.625 L 5.5 8.375 C 5.5 8.2365 5.6115 8.125 5.75 8.125 L 8.125 8.125 L 8.125 5.75 C 8.125 5.6115 8.2365 5.5 8.375 5.5 z M 8.875 8.875 L 8.875 11.125 L 11.125 11.125 L 11.125 8.875 L 8.875 8.875 z "
       transform="translate(0,992.3622)"
       id="rect6854" />
    <path
       sodipodi:type="arc"
       style="color:#000000;fill:#202020;fill-opacity:1;fill-rule:nonzero;stroke:none;stroke-width:1;marker:none;visibility:visible;display:inline;overflow:visible;enable-background:accumulate"
       id="path3000"
       sodipodi:cx="90"
       sodipodi:cy="10"
       sodipodi:rx="3"
       sodipodi:ry="3"
       d="m 93,10 a 3,3 0 1 1 -6,0 3,3 0 1 1 6,0 z"
       transform="matrix(1.6666667,0,0,1.6666667,-60,985.6955)" />
    <path
       style="color:#000000;fill:#202020;fill-opacity:1;fill-rule:nonzero;stroke:none;stroke-width:1;marker:none;visibility:visible;display:inline;overflow:visible;enable-background:accumulate"
       d="M 127 6.5 L 123 10 L 127 13.5 L 127 11 L 133 11 L 133 13.5 L 137 10 L 133 6.5 L 133 9 L 127 9 L 127 6.5 z "
       transform="translate(0,992.3622)"
       id="path4839" />
    <path
       style="color:#000000;fill:#202020;fill-opacity:1;fill-rule:nonzero;stroke:none;stroke-width:1;marker:none;visibility:visible;display:inline;overflow:visible;enable-background:accumulate"
       d="M 146 5 C 144.892 5 144 5.892 144 7 L 144 13 C 144 14.108 144.892 15 146 15 L 148 15 L 148 13 L 148 7 L 148 5 L 146 5 z "
       transform="translate(0,992.3622)"
       id="rect4845" />
    <rect
       y="997.36224"
       x="148"
       height="9.9999495"
       width="4"
       id="rect4847"
       style="color:#000000;fill:#202020;fill-opacity:0.75294118;fill-rule:nonzero;stroke:none;stroke-width:1;marker:none;visibility:visible;display:inline;overflow:visible;enable-background:accumulate" />
    <path
       style="color:#000000;fill:#202020;fill-opacity:0.50196078;fill-rule:nonzero;stroke:none;stroke-width:1;marker:none;visibility:visible;display:inline;overflow:visible;enable-background:accumulate"
       d="M 152 5 L 152 7 L 152 13 L 152 15 L 154 15 C 155.108 15 156 14.108 156 13 L 156 7 C 156 5.892 155.108 5 154 5 L 152 5 z "
       transform="translate(0,992.3622)"
       id="rect4849" />
    <path
       id="path5632"
       d="m 127,1018.8622 -4,3.5 4,3.5 0,-2.5 6,0 0,2.5 4,-3.5 -4,-3.5 0,2.5 -6,0 0,-2.5 z"
       style="color:#000000;fill:#ffffff;fill-opacity:1;fill-rule:nonzero;stroke:none;stroke-width:1;marker:none;visibility:visible;display:inline;overflow:visible;enable-background:accumulate"
       inkscape:connector-curvature="0" />
    <path
       id="path5634"
       d="m 146,1017.3622 c -1.108,0 -2,0.892 -2,2 l 0,6 c 0,1.108 0.892,2 2,2 l 2,0 0,-2 0,-6 0,-2 -2,0 z"
       style="color:#000000;fill:#ffffff;fill-opacity:1;fill-rule:nonzero;stroke:none;stroke-width:1;marker:none;visibility:visible;display:inline;overflow:visible;enable-background:accumulate"
       inkscape:connector-curvature="0" />
    <rect
       style="color:#000000;fill:#ffffff;fill-opacity:0.75294119;fill-rule:nonzero;stroke:none;stroke-width:1;marker:none;visibility:visible;display:inline;overflow:visible;enable-background:accumulate"
       id="rect5636"
       width="4"
       height="9.9999495"
       x="148"
       y="1017.3622" />
    <path
       id="path5638"
       d="m 152,1017.3622 0,2 0,6 0,2 2,0 c 1.108,0 2,-0.892 2,-2 l 0,-6 c 0,-1.108 -0.892,-2 -2,-2 l -2,0 z"
       style="color:#000000;fill:#ffffff;fill-opacity:0.50196081;fill-rule:nonzero;stroke:none;stroke-width:1;marker:none;visibility:visible;display:inline;overflow:visible;enable-background:accumulate"
       inkscape:connector-curvature="0" />
    <path
       inkscape:connector-curvature="0"
       id="path5642"
       d="m 110,1016.8622 c -3.03756,0 -5.5,2.4624 -5.5,5.5 0,3.0376 2.46244,5.5 5.5,5.5 3.03756,0 5.5,-2.4624 5.5,-5.5 0,-3.0376 -2.46244,-5.5 -5.5,-5.5 z m 0,2.5 c 1.65684,0 3,1.3432 3,3 0,1.6568 -1.34316,3 -3,3 -1.65684,0 -3,-1.3432 -3,-3 0,-1.6568 1.34316,-3 3,-3 z"
       style="color:#000000;fill:#ffffff;fill-opacity:1;fill-rule:nonzero;stroke:none;stroke-width:1;marker:none;visibility:visible;display:inline;overflow:visible;enable-background:accumulate" />
    <path
       inkscape:connector-curvature="0"
       id="path5644"
       d="m 30,1016.3622 c -0.846103,1.6922 -1.639325,2.4325 -1.639325,2.4325 l -1.348477,1.3485 c -1.652119,1.6521 -1.652119,4.3235 0,5.9756 1.652119,1.6521 4.323484,1.6521 5.975604,0 1.65212,-1.6521 1.65212,-4.3235 0,-5.9756 l -1.348477,-1.3485 c 0,0 -0.793222,-0.7403 -1.639325,-2.4325 z m -1.269155,4.2305 c 0.700935,0 1.269155,0.5682 1.269155,1.2691 0,0.701 -0.56822,1.2692 -1.269155,1.2692 -0.700935,0 -1.269155,-0.5682 -1.269155,-1.2692 0,-0.7009 0.56822,-1.2691 1.269155,-1.2691 z"
       style="color:#000000;fill:#ffffff;fill-opacity:1;fill-rule:nonzero;stroke:none;stroke-width:1;marker:none;visibility:visible;display:inline;overflow:visible;enable-background:accumulate" />
    <path
       sodipodi:nodetypes="cccc"
       inkscape:connector-curvature="0"
       id="path5646"
       d="m 45,1025.8622 1.5,1.5 8.5,-8.5 -1.5,-1.5"
       style="color:#000000;fill:#ffffff;fill-opacity:1;fill-rule:nonzero;stroke:none;stroke-width:1;marker:none;visibility:visible;display:inline;overflow:visible;enable-background:accumulate" />
    <path
       sodipodi:nodetypes="ccccccccccccccc"
       inkscape:connector-curvature="0"
       id="path5648"
       d="m 65,1017.3622 0,1.5 0,1.5 1,-1.5 2.875,0 0,6.75 -0.875,1.75 4,0 -0.875,-1.75 0,-6.75 2.875,0 1,1.5 0,-1.5 0,-1.5 z"
       style="color:#000000;fill:#ffffff;fill-opacity:1;fill-rule:nonzero;stroke:none;stroke-width:1;marker:none;visibility:visible;display:inline;overflow:visible;enable-background:accumulate" />
    <path
       id="path5650"
       d="m 6,1016.3622 c -1.108,0 -2,0.892 -2,2 l 0,8 c 0,1.108 0.892,2 2,2 l 8,0 c 1.108,0 2,-0.892 2,-2 l 0,-8 c 0,-1.108 -0.892,-2 -2,-2 l -8,0 z m 2.375,1.5 0.25,0 c 0.1385,0 0.25,0.1115 0.25,0.25 l 0,2.375 2.25,0 0,-2.375 c 0,-0.1385 0.1115,-0.25 0.25,-0.25 l 0.25,0 c 0.1385,0 0.25,0.1115 0.25,0.25 l 0,2.375 2.375,0 c 0.1385,0 0.25,0.1115 0.25,0.25 l 0,0.25 c 0,0.1385 -0.1115,0.25 -0.25,0.25 l -2.375,0 0,2.25 2.375,0 c 0.1385,0 0.25,0.1115 0.25,0.25 l 0,0.25 c 0,0.1385 -0.1115,0.25 -0.25,0.25 l -2.375,0 0,2.375 c 0,0.1385 -0.1115,0.25 -0.25,0.25 l -0.25,0 c -0.1385,0 -0.25,-0.1115 -0.25,-0.25 l 0,-2.375 -2.25,0 0,2.375 c 0,0.1385 -0.1115,0.25 -0.25,0.25 l -0.25,0 c -0.1385,0 -0.25,-0.1115 -0.25,-0.25 l 0,-2.375 -2.375,0 c -0.1385,0 -0.25,-0.1115 -0.25,-0.25 l 0,-0.25 c 0,-0.1385 0.1115,-0.25 0.25,-0.25 l 2.375,0 0,-2.25 -2.375,0 c -0.1385,0 -0.25,-0.1115 -0.25,-0.25 l 0,-0.25 c 0,-0.1385 0.1115,-0.25 0.25,-0.25 l 2.375,0 0,-2.375 c 0,-0.1385 0.1115,-0.25 0.25,-0.25 z m 0.5,3.375 0,2.25 2.25,0 0,-2.25 -2.25,0 z"
       style="color:#000000;fill:#ffffff;fill-opacity:1;fill-rule:nonzero;stroke:none;stroke-width:1;marker:none;visibility:visible;display:inline;overflow:visible;enable-background:accumulate"
       inkscape:connector-curvature="0" />
    <path
       transform="matrix(1.6666667,0,0,1.6666667,-60,1005.6955)"
       d="m 93,10 a 3,3 0 1 1 -6,0 3,3 0 1 1 6,0 z"
       sodipodi:ry="3"
       sodipodi:rx="3"
       sodipodi:cy="10"
       sodipodi:cx="90"
       id="path5652"
       style="color:#000000;fill:#ffffff;fill-opacity:1;fill-rule:nonzero;stroke:none;stroke-width:1;marker:none;visibility:visible;display:inline;overflow:visible;enable-background:accumulate"
       sodipodi:type="arc" />
  </g>
</svg>
